<svg width="245" height="292" viewBox="0 0 245 292" fill="none" xmlns="http://www.w3.org/2000/svg">
<path d="M165.912 132.125L131.466 97.6781L144.678 84.4656L179.125 118.913L165.912 132.125ZM79.0875 132.125L65.875 118.913L109.287 75.5L98.5917 64.8042L94.1875 69.2084L86.1656 61.1865V74.0844L81.7614 78.4886L62.7292 59.4563L67.1333 55.0521H80.0312L72.1667 47.1875L94.5021 24.8521C96.5993 22.7549 98.8538 21.2344 101.266 20.2906C103.677 19.3469 106.142 18.875 108.658 18.875C111.175 18.875 113.639 19.3469 116.051 20.2906C118.463 21.2344 120.717 22.7549 122.815 24.8521L108.344 39.3229L116.208 47.1875L111.804 51.5917L122.5 62.2875L136.656 48.1313C136.237 46.9778 135.897 45.7719 135.637 44.5136C135.377 43.2552 135.245 41.9969 135.241 40.7386C135.241 34.5517 137.365 29.3339 141.614 25.0849C145.863 20.8359 151.079 18.7135 157.261 18.7177C158.834 18.7177 160.33 18.875 161.747 19.1896C163.165 19.5042 164.606 19.9761 166.07 20.6052L150.498 36.1771L161.823 47.5021L177.395 31.9302C178.129 33.3983 178.628 34.8391 178.892 36.2526C179.156 37.6661 179.286 39.1614 179.282 40.7386C179.282 46.9254 177.16 52.1432 172.915 56.3922C168.67 60.6412 163.452 62.7636 157.261 62.7594C156.003 62.7594 154.745 62.6545 153.486 62.4448C152.228 62.2351 151.022 61.8681 149.869 61.3438L79.0875 132.125Z" fill="#8E1E03"/>
<path d="M36.8506 277.925H41.2305C41.1426 279.36 40.7471 280.635 40.0439 281.748C39.3506 282.861 38.3789 283.73 37.1289 284.355C35.8887 284.98 34.3945 285.293 32.6465 285.293C31.2793 285.293 30.0537 285.059 28.9697 284.59C27.8857 284.111 26.958 283.428 26.1865 282.539C25.4248 281.65 24.8438 280.576 24.4434 279.316C24.043 278.057 23.8428 276.646 23.8428 275.083V273.604C23.8428 272.041 24.0479 270.63 24.458 269.37C24.8779 268.101 25.4736 267.021 26.2451 266.133C27.0264 265.244 27.959 264.561 29.043 264.082C30.127 263.604 31.3379 263.364 32.6758 263.364C34.4531 263.364 35.9521 263.687 37.1729 264.331C38.4033 264.976 39.3555 265.864 40.0293 266.997C40.7129 268.13 41.123 269.419 41.2598 270.864H36.8652C36.8164 270.005 36.6455 269.277 36.3525 268.682C36.0596 268.076 35.6152 267.622 35.0195 267.319C34.4336 267.007 33.6523 266.851 32.6758 266.851C31.9434 266.851 31.3037 266.987 30.7568 267.261C30.21 267.534 29.751 267.949 29.3799 268.506C29.0088 269.062 28.7305 269.766 28.5449 270.615C28.3691 271.455 28.2812 272.441 28.2812 273.574V275.083C28.2812 276.187 28.3643 277.158 28.5303 277.998C28.6963 278.828 28.9502 279.531 29.292 280.107C29.6436 280.674 30.0928 281.104 30.6396 281.396C31.1963 281.68 31.8652 281.821 32.6465 281.821C33.5645 281.821 34.3213 281.675 34.917 281.382C35.5127 281.089 35.9668 280.654 36.2793 280.078C36.6016 279.502 36.792 278.784 36.8506 277.925ZM43.1787 277.236V276.929C43.1787 275.767 43.3447 274.697 43.6768 273.721C44.0088 272.734 44.4922 271.88 45.127 271.157C45.7617 270.435 46.543 269.873 47.4707 269.473C48.3984 269.062 49.4629 268.857 50.6641 268.857C51.8652 268.857 52.9346 269.062 53.8721 269.473C54.8096 269.873 55.5957 270.435 56.2305 271.157C56.875 271.88 57.3633 272.734 57.6953 273.721C58.0273 274.697 58.1934 275.767 58.1934 276.929V277.236C58.1934 278.389 58.0273 279.458 57.6953 280.444C57.3633 281.421 56.875 282.275 56.2305 283.008C55.5957 283.73 54.8145 284.292 53.8867 284.692C52.959 285.093 51.8945 285.293 50.6934 285.293C49.4922 285.293 48.4229 285.093 47.4854 284.692C46.5576 284.292 45.7715 283.73 45.127 283.008C44.4922 282.275 44.0088 281.421 43.6768 280.444C43.3447 279.458 43.1787 278.389 43.1787 277.236ZM47.3975 276.929V277.236C47.3975 277.9 47.4561 278.521 47.5732 279.097C47.6904 279.673 47.876 280.181 48.1299 280.62C48.3936 281.05 48.7354 281.387 49.1553 281.631C49.5752 281.875 50.0879 281.997 50.6934 281.997C51.2793 281.997 51.7822 281.875 52.2021 281.631C52.6221 281.387 52.959 281.05 53.2129 280.62C53.4668 280.181 53.6523 279.673 53.7695 279.097C53.8965 278.521 53.96 277.9 53.96 277.236V276.929C53.96 276.284 53.8965 275.679 53.7695 275.112C53.6523 274.536 53.4619 274.028 53.1982 273.589C52.9443 273.14 52.6074 272.788 52.1875 272.534C51.7676 272.28 51.2598 272.153 50.6641 272.153C50.0684 272.153 49.5605 272.28 49.1406 272.534C48.7305 272.788 48.3936 273.14 48.1299 273.589C47.876 274.028 47.6904 274.536 47.5732 275.112C47.4561 275.679 47.3975 276.284 47.3975 276.929ZM64.917 272.534V285H60.6982V269.15H64.6533L64.917 272.534ZM64.3018 276.519H63.1592C63.1592 275.347 63.3105 274.292 63.6133 273.354C63.916 272.407 64.3408 271.602 64.8877 270.938C65.4346 270.264 66.084 269.751 66.8359 269.399C67.5977 269.038 68.4473 268.857 69.3848 268.857C70.127 268.857 70.8057 268.965 71.4209 269.18C72.0361 269.395 72.5635 269.736 73.0029 270.205C73.4521 270.674 73.7939 271.294 74.0283 272.065C74.2725 272.837 74.3945 273.779 74.3945 274.893V285H70.1465V274.878C70.1465 274.175 70.0488 273.628 69.8535 273.237C69.6582 272.847 69.3701 272.573 68.9893 272.417C68.6182 272.251 68.1592 272.168 67.6123 272.168C67.0459 272.168 66.5527 272.28 66.1328 272.505C65.7227 272.729 65.3809 273.042 65.1074 273.442C64.8438 273.833 64.6436 274.292 64.5068 274.819C64.3701 275.347 64.3018 275.913 64.3018 276.519ZM86.1719 280.62C86.1719 280.317 86.084 280.044 85.9082 279.8C85.7324 279.556 85.4053 279.331 84.9268 279.126C84.458 278.911 83.7793 278.716 82.8906 278.54C82.0898 278.364 81.3428 278.145 80.6494 277.881C79.9658 277.607 79.3701 277.28 78.8623 276.899C78.3643 276.519 77.9736 276.069 77.6904 275.552C77.4072 275.024 77.2656 274.424 77.2656 273.75C77.2656 273.086 77.4072 272.461 77.6904 271.875C77.9834 271.289 78.3984 270.771 78.9355 270.322C79.4824 269.863 80.1465 269.507 80.9277 269.253C81.7188 268.989 82.6074 268.857 83.5938 268.857C84.9707 268.857 86.1523 269.077 87.1387 269.517C88.1348 269.956 88.8965 270.562 89.4238 271.333C89.9609 272.095 90.2295 272.964 90.2295 273.94H86.0107C86.0107 273.53 85.9229 273.164 85.7471 272.842C85.5811 272.51 85.3174 272.251 84.9561 272.065C84.6045 271.87 84.1455 271.772 83.5791 271.772C83.1104 271.772 82.7051 271.855 82.3633 272.021C82.0215 272.178 81.7578 272.393 81.5723 272.666C81.3965 272.93 81.3086 273.223 81.3086 273.545C81.3086 273.789 81.3574 274.009 81.4551 274.204C81.5625 274.39 81.7334 274.561 81.9678 274.717C82.2021 274.873 82.5049 275.02 82.876 275.156C83.2568 275.283 83.7256 275.4 84.2822 275.508C85.4248 275.742 86.4453 276.05 87.3438 276.431C88.2422 276.802 88.9551 277.31 89.4824 277.954C90.0098 278.589 90.2734 279.424 90.2734 280.459C90.2734 281.162 90.1172 281.807 89.8047 282.393C89.4922 282.979 89.043 283.491 88.457 283.931C87.8711 284.36 87.168 284.697 86.3477 284.941C85.5371 285.176 84.624 285.293 83.6084 285.293C82.1338 285.293 80.8838 285.029 79.8584 284.502C78.8428 283.975 78.0713 283.306 77.5439 282.495C77.0264 281.675 76.7676 280.835 76.7676 279.976H80.7666C80.7861 280.552 80.9326 281.016 81.2061 281.367C81.4893 281.719 81.8457 281.973 82.2754 282.129C82.7148 282.285 83.1885 282.363 83.6963 282.363C84.2432 282.363 84.6973 282.29 85.0586 282.144C85.4199 281.987 85.6934 281.782 85.8789 281.528C86.0742 281.265 86.1719 280.962 86.1719 280.62ZM100.776 269.15V272.139H91.5479V269.15H100.776ZM93.833 265.239H98.0518V280.225C98.0518 280.684 98.1104 281.035 98.2275 281.279C98.3545 281.523 98.54 281.694 98.7842 281.792C99.0283 281.88 99.3359 281.924 99.707 281.924C99.9707 281.924 100.205 281.914 100.41 281.895C100.625 281.865 100.806 281.836 100.952 281.807L100.967 284.912C100.605 285.029 100.215 285.122 99.7949 285.19C99.375 285.259 98.9111 285.293 98.4033 285.293C97.4756 285.293 96.665 285.142 95.9717 284.839C95.2881 284.526 94.7607 284.028 94.3896 283.345C94.0186 282.661 93.833 281.763 93.833 280.649V265.239ZM107.397 272.607V285H103.179V269.15H107.148L107.397 272.607ZM112.173 269.048L112.1 272.959C111.895 272.93 111.646 272.905 111.353 272.886C111.069 272.856 110.811 272.842 110.576 272.842C109.98 272.842 109.463 272.92 109.023 273.076C108.594 273.223 108.232 273.442 107.939 273.735C107.656 274.028 107.441 274.385 107.295 274.805C107.158 275.225 107.08 275.703 107.061 276.24L106.211 275.977C106.211 274.951 106.313 274.009 106.519 273.149C106.724 272.28 107.021 271.523 107.412 270.879C107.812 270.234 108.301 269.736 108.877 269.385C109.453 269.033 110.112 268.857 110.854 268.857C111.089 268.857 111.328 268.877 111.572 268.916C111.816 268.945 112.017 268.989 112.173 269.048ZM123.54 281.206V269.15H127.759V285H123.789L123.54 281.206ZM124.009 277.954L125.254 277.925C125.254 278.979 125.132 279.961 124.888 280.869C124.644 281.768 124.277 282.549 123.789 283.213C123.301 283.867 122.686 284.38 121.943 284.751C121.201 285.112 120.327 285.293 119.321 285.293C118.55 285.293 117.837 285.186 117.183 284.971C116.538 284.746 115.981 284.399 115.513 283.931C115.054 283.452 114.692 282.842 114.429 282.1C114.175 281.348 114.048 280.444 114.048 279.39V269.15H118.267V279.419C118.267 279.888 118.32 280.283 118.428 280.605C118.545 280.928 118.706 281.191 118.911 281.396C119.116 281.602 119.355 281.748 119.629 281.836C119.912 281.924 120.225 281.968 120.566 281.968C121.436 281.968 122.119 281.792 122.617 281.44C123.125 281.089 123.481 280.61 123.687 280.005C123.901 279.39 124.009 278.706 124.009 277.954ZM138.276 285.293C137.046 285.293 135.942 285.098 134.966 284.707C133.989 284.307 133.159 283.755 132.476 283.052C131.802 282.349 131.284 281.533 130.923 280.605C130.562 279.668 130.381 278.672 130.381 277.617V277.031C130.381 275.83 130.552 274.731 130.894 273.735C131.235 272.739 131.724 271.875 132.358 271.143C133.003 270.41 133.784 269.849 134.702 269.458C135.62 269.058 136.655 268.857 137.808 268.857C138.931 268.857 139.927 269.043 140.796 269.414C141.665 269.785 142.393 270.312 142.979 270.996C143.574 271.68 144.023 272.5 144.326 273.457C144.629 274.404 144.78 275.459 144.78 276.621V278.379H132.183V275.566H140.635V275.244C140.635 274.658 140.527 274.136 140.312 273.677C140.107 273.208 139.795 272.837 139.375 272.563C138.955 272.29 138.418 272.153 137.764 272.153C137.207 272.153 136.729 272.275 136.328 272.52C135.928 272.764 135.601 273.105 135.347 273.545C135.103 273.984 134.917 274.502 134.79 275.098C134.673 275.684 134.614 276.328 134.614 277.031V277.617C134.614 278.252 134.702 278.838 134.878 279.375C135.063 279.912 135.322 280.376 135.654 280.767C135.996 281.157 136.406 281.46 136.885 281.675C137.373 281.89 137.925 281.997 138.54 281.997C139.302 281.997 140.01 281.851 140.664 281.558C141.328 281.255 141.899 280.801 142.378 280.195L144.429 282.422C144.097 282.9 143.643 283.359 143.066 283.799C142.5 284.238 141.816 284.6 141.016 284.883C140.215 285.156 139.302 285.293 138.276 285.293ZM158.55 279.419C158.55 279.038 158.491 278.696 158.374 278.394C158.267 278.081 158.062 277.798 157.759 277.544C157.456 277.28 157.031 277.021 156.484 276.768C155.938 276.514 155.229 276.25 154.36 275.977C153.394 275.664 152.476 275.312 151.606 274.922C150.747 274.531 149.985 274.077 149.321 273.56C148.667 273.032 148.149 272.422 147.769 271.729C147.397 271.035 147.212 270.229 147.212 269.312C147.212 268.423 147.407 267.617 147.798 266.895C148.188 266.162 148.735 265.537 149.438 265.02C150.142 264.492 150.972 264.087 151.929 263.804C152.896 263.521 153.955 263.379 155.107 263.379C156.68 263.379 158.052 263.662 159.224 264.229C160.396 264.795 161.304 265.571 161.948 266.558C162.603 267.544 162.93 268.672 162.93 269.941H158.564C158.564 269.316 158.433 268.77 158.169 268.301C157.915 267.822 157.524 267.446 156.997 267.173C156.479 266.899 155.825 266.763 155.034 266.763C154.272 266.763 153.638 266.88 153.13 267.114C152.622 267.339 152.241 267.646 151.987 268.037C151.733 268.418 151.606 268.848 151.606 269.326C151.606 269.688 151.694 270.015 151.87 270.308C152.056 270.601 152.329 270.874 152.69 271.128C153.052 271.382 153.496 271.621 154.023 271.846C154.551 272.07 155.161 272.29 155.854 272.505C157.017 272.856 158.037 273.252 158.916 273.691C159.805 274.131 160.547 274.624 161.143 275.171C161.738 275.718 162.188 276.338 162.49 277.031C162.793 277.725 162.944 278.511 162.944 279.39C162.944 280.317 162.764 281.147 162.402 281.88C162.041 282.612 161.519 283.232 160.835 283.74C160.151 284.248 159.336 284.634 158.389 284.897C157.441 285.161 156.382 285.293 155.21 285.293C154.155 285.293 153.115 285.156 152.09 284.883C151.064 284.6 150.132 284.175 149.292 283.608C148.462 283.042 147.798 282.319 147.3 281.44C146.802 280.562 146.553 279.521 146.553 278.32H150.962C150.962 278.984 151.064 279.546 151.27 280.005C151.475 280.464 151.763 280.835 152.134 281.118C152.515 281.401 152.964 281.606 153.481 281.733C154.009 281.86 154.585 281.924 155.21 281.924C155.972 281.924 156.597 281.816 157.085 281.602C157.583 281.387 157.949 281.089 158.184 280.708C158.428 280.327 158.55 279.897 158.55 279.419ZM173.433 269.15V272.139H164.204V269.15H173.433ZM166.489 265.239H170.708V280.225C170.708 280.684 170.767 281.035 170.884 281.279C171.011 281.523 171.196 281.694 171.44 281.792C171.685 281.88 171.992 281.924 172.363 281.924C172.627 281.924 172.861 281.914 173.066 281.895C173.281 281.865 173.462 281.836 173.608 281.807L173.623 284.912C173.262 285.029 172.871 285.122 172.451 285.19C172.031 285.259 171.567 285.293 171.06 285.293C170.132 285.293 169.321 285.142 168.628 284.839C167.944 284.526 167.417 284.028 167.046 283.345C166.675 282.661 166.489 281.763 166.489 280.649V265.239ZM174.78 277.236V276.929C174.78 275.767 174.946 274.697 175.278 273.721C175.61 272.734 176.094 271.88 176.729 271.157C177.363 270.435 178.145 269.873 179.072 269.473C180 269.062 181.064 268.857 182.266 268.857C183.467 268.857 184.536 269.062 185.474 269.473C186.411 269.873 187.197 270.435 187.832 271.157C188.477 271.88 188.965 272.734 189.297 273.721C189.629 274.697 189.795 275.767 189.795 276.929V277.236C189.795 278.389 189.629 279.458 189.297 280.444C188.965 281.421 188.477 282.275 187.832 283.008C187.197 283.73 186.416 284.292 185.488 284.692C184.561 285.093 183.496 285.293 182.295 285.293C181.094 285.293 180.024 285.093 179.087 284.692C178.159 284.292 177.373 283.73 176.729 283.008C176.094 282.275 175.61 281.421 175.278 280.444C174.946 279.458 174.78 278.389 174.78 277.236ZM178.999 276.929V277.236C178.999 277.9 179.058 278.521 179.175 279.097C179.292 279.673 179.478 280.181 179.731 280.62C179.995 281.05 180.337 281.387 180.757 281.631C181.177 281.875 181.689 281.997 182.295 281.997C182.881 281.997 183.384 281.875 183.804 281.631C184.224 281.387 184.561 281.05 184.814 280.62C185.068 280.181 185.254 279.673 185.371 279.097C185.498 278.521 185.562 277.9 185.562 277.236V276.929C185.562 276.284 185.498 275.679 185.371 275.112C185.254 274.536 185.063 274.028 184.8 273.589C184.546 273.14 184.209 272.788 183.789 272.534C183.369 272.28 182.861 272.153 182.266 272.153C181.67 272.153 181.162 272.28 180.742 272.534C180.332 272.788 179.995 273.14 179.731 273.589C179.478 274.028 179.292 274.536 179.175 275.112C179.058 275.679 178.999 276.284 178.999 276.929ZM198.936 281.997C199.453 281.997 199.912 281.899 200.312 281.704C200.713 281.499 201.025 281.216 201.25 280.854C201.484 280.483 201.606 280.049 201.616 279.551H205.586C205.576 280.664 205.278 281.655 204.692 282.524C204.106 283.384 203.32 284.062 202.334 284.561C201.348 285.049 200.244 285.293 199.023 285.293C197.793 285.293 196.719 285.088 195.801 284.678C194.893 284.268 194.136 283.701 193.53 282.979C192.925 282.246 192.471 281.396 192.168 280.43C191.865 279.453 191.714 278.408 191.714 277.295V276.87C191.714 275.747 191.865 274.702 192.168 273.735C192.471 272.759 192.925 271.909 193.53 271.187C194.136 270.454 194.893 269.883 195.801 269.473C196.709 269.062 197.773 268.857 198.994 268.857C200.293 268.857 201.431 269.106 202.407 269.604C203.394 270.103 204.165 270.815 204.722 271.743C205.288 272.661 205.576 273.75 205.586 275.01H201.616C201.606 274.482 201.494 274.004 201.279 273.574C201.074 273.145 200.771 272.803 200.371 272.549C199.98 272.285 199.497 272.153 198.921 272.153C198.306 272.153 197.803 272.285 197.412 272.549C197.021 272.803 196.719 273.154 196.504 273.604C196.289 274.043 196.138 274.546 196.05 275.112C195.972 275.669 195.933 276.255 195.933 276.87V277.295C195.933 277.91 195.972 278.501 196.05 279.067C196.128 279.634 196.274 280.137 196.489 280.576C196.714 281.016 197.021 281.362 197.412 281.616C197.803 281.87 198.311 281.997 198.936 281.997ZM212.251 262.485V285H208.032V262.485H212.251ZM222.241 269.15L215.356 277.002L211.665 280.737L210.127 277.69L213.057 273.97L217.173 269.15H222.241ZM217.861 285L213.174 277.676L216.089 275.127L222.725 285H217.861Z" fill="#8E1E03"/>
</svg>
