<svg width="245" height="205" viewBox="0 0 245 205" fill="none" xmlns="http://www.w3.org/2000/svg">
<path d="M36.8506 190.925H41.2305C41.1426 192.36 40.7471 193.635 40.0439 194.748C39.3506 195.861 38.3789 196.73 37.1289 197.355C35.8887 197.98 34.3945 198.293 32.6465 198.293C31.2793 198.293 30.0537 198.059 28.9697 197.59C27.8857 197.111 26.958 196.428 26.1865 195.539C25.4248 194.65 24.8438 193.576 24.4434 192.316C24.043 191.057 23.8428 189.646 23.8428 188.083V186.604C23.8428 185.041 24.0479 183.63 24.458 182.37C24.8779 181.101 25.4736 180.021 26.2451 179.133C27.0264 178.244 27.959 177.561 29.043 177.082C30.127 176.604 31.3379 176.364 32.6758 176.364C34.4531 176.364 35.9521 176.687 37.1729 177.331C38.4033 177.976 39.3555 178.864 40.0293 179.997C40.7129 181.13 41.123 182.419 41.2598 183.864H36.8652C36.8164 183.005 36.6455 182.277 36.3525 181.682C36.0596 181.076 35.6152 180.622 35.0195 180.319C34.4336 180.007 33.6523 179.851 32.6758 179.851C31.9434 179.851 31.3037 179.987 30.7568 180.261C30.21 180.534 29.751 180.949 29.3799 181.506C29.0088 182.062 28.7305 182.766 28.5449 183.615C28.3691 184.455 28.2812 185.441 28.2812 186.574V188.083C28.2812 189.187 28.3643 190.158 28.5303 190.998C28.6963 191.828 28.9502 192.531 29.292 193.107C29.6436 193.674 30.0928 194.104 30.6396 194.396C31.1963 194.68 31.8652 194.821 32.6465 194.821C33.5645 194.821 34.3213 194.675 34.917 194.382C35.5127 194.089 35.9668 193.654 36.2793 193.078C36.6016 192.502 36.792 191.784 36.8506 190.925ZM43.1787 190.236V189.929C43.1787 188.767 43.3447 187.697 43.6768 186.721C44.0088 185.734 44.4922 184.88 45.127 184.157C45.7617 183.435 46.543 182.873 47.4707 182.473C48.3984 182.062 49.4629 181.857 50.6641 181.857C51.8652 181.857 52.9346 182.062 53.8721 182.473C54.8096 182.873 55.5957 183.435 56.2305 184.157C56.875 184.88 57.3633 185.734 57.6953 186.721C58.0273 187.697 58.1934 188.767 58.1934 189.929V190.236C58.1934 191.389 58.0273 192.458 57.6953 193.444C57.3633 194.421 56.875 195.275 56.2305 196.008C55.5957 196.73 54.8145 197.292 53.8867 197.692C52.959 198.093 51.8945 198.293 50.6934 198.293C49.4922 198.293 48.4229 198.093 47.4854 197.692C46.5576 197.292 45.7715 196.73 45.127 196.008C44.4922 195.275 44.0088 194.421 43.6768 193.444C43.3447 192.458 43.1787 191.389 43.1787 190.236ZM47.3975 189.929V190.236C47.3975 190.9 47.4561 191.521 47.5732 192.097C47.6904 192.673 47.876 193.181 48.1299 193.62C48.3936 194.05 48.7354 194.387 49.1553 194.631C49.5752 194.875 50.0879 194.997 50.6934 194.997C51.2793 194.997 51.7822 194.875 52.2021 194.631C52.6221 194.387 52.959 194.05 53.2129 193.62C53.4668 193.181 53.6523 192.673 53.7695 192.097C53.8965 191.521 53.96 190.9 53.96 190.236V189.929C53.96 189.284 53.8965 188.679 53.7695 188.112C53.6523 187.536 53.4619 187.028 53.1982 186.589C52.9443 186.14 52.6074 185.788 52.1875 185.534C51.7676 185.28 51.2598 185.153 50.6641 185.153C50.0684 185.153 49.5605 185.28 49.1406 185.534C48.7305 185.788 48.3936 186.14 48.1299 186.589C47.876 187.028 47.6904 187.536 47.5732 188.112C47.4561 188.679 47.3975 189.284 47.3975 189.929ZM64.917 185.534V198H60.6982V182.15H64.6533L64.917 185.534ZM64.3018 189.519H63.1592C63.1592 188.347 63.3105 187.292 63.6133 186.354C63.916 185.407 64.3408 184.602 64.8877 183.938C65.4346 183.264 66.084 182.751 66.8359 182.399C67.5977 182.038 68.4473 181.857 69.3848 181.857C70.127 181.857 70.8057 181.965 71.4209 182.18C72.0361 182.395 72.5635 182.736 73.0029 183.205C73.4521 183.674 73.7939 184.294 74.0283 185.065C74.2725 185.837 74.3945 186.779 74.3945 187.893V198H70.1465V187.878C70.1465 187.175 70.0488 186.628 69.8535 186.237C69.6582 185.847 69.3701 185.573 68.9893 185.417C68.6182 185.251 68.1592 185.168 67.6123 185.168C67.0459 185.168 66.5527 185.28 66.1328 185.505C65.7227 185.729 65.3809 186.042 65.1074 186.442C64.8438 186.833 64.6436 187.292 64.5068 187.819C64.3701 188.347 64.3018 188.913 64.3018 189.519ZM86.1719 193.62C86.1719 193.317 86.084 193.044 85.9082 192.8C85.7324 192.556 85.4053 192.331 84.9268 192.126C84.458 191.911 83.7793 191.716 82.8906 191.54C82.0898 191.364 81.3428 191.145 80.6494 190.881C79.9658 190.607 79.3701 190.28 78.8623 189.899C78.3643 189.519 77.9736 189.069 77.6904 188.552C77.4072 188.024 77.2656 187.424 77.2656 186.75C77.2656 186.086 77.4072 185.461 77.6904 184.875C77.9834 184.289 78.3984 183.771 78.9355 183.322C79.4824 182.863 80.1465 182.507 80.9277 182.253C81.7188 181.989 82.6074 181.857 83.5938 181.857C84.9707 181.857 86.1523 182.077 87.1387 182.517C88.1348 182.956 88.8965 183.562 89.4238 184.333C89.9609 185.095 90.2295 185.964 90.2295 186.94H86.0107C86.0107 186.53 85.9229 186.164 85.7471 185.842C85.5811 185.51 85.3174 185.251 84.9561 185.065C84.6045 184.87 84.1455 184.772 83.5791 184.772C83.1104 184.772 82.7051 184.855 82.3633 185.021C82.0215 185.178 81.7578 185.393 81.5723 185.666C81.3965 185.93 81.3086 186.223 81.3086 186.545C81.3086 186.789 81.3574 187.009 81.4551 187.204C81.5625 187.39 81.7334 187.561 81.9678 187.717C82.2021 187.873 82.5049 188.02 82.876 188.156C83.2568 188.283 83.7256 188.4 84.2822 188.508C85.4248 188.742 86.4453 189.05 87.3438 189.431C88.2422 189.802 88.9551 190.31 89.4824 190.954C90.0098 191.589 90.2734 192.424 90.2734 193.459C90.2734 194.162 90.1172 194.807 89.8047 195.393C89.4922 195.979 89.043 196.491 88.457 196.931C87.8711 197.36 87.168 197.697 86.3477 197.941C85.5371 198.176 84.624 198.293 83.6084 198.293C82.1338 198.293 80.8838 198.029 79.8584 197.502C78.8428 196.975 78.0713 196.306 77.5439 195.495C77.0264 194.675 76.7676 193.835 76.7676 192.976H80.7666C80.7861 193.552 80.9326 194.016 81.2061 194.367C81.4893 194.719 81.8457 194.973 82.2754 195.129C82.7148 195.285 83.1885 195.363 83.6963 195.363C84.2432 195.363 84.6973 195.29 85.0586 195.144C85.4199 194.987 85.6934 194.782 85.8789 194.528C86.0742 194.265 86.1719 193.962 86.1719 193.62ZM100.776 182.15V185.139H91.5479V182.15H100.776ZM93.833 178.239H98.0518V193.225C98.0518 193.684 98.1104 194.035 98.2275 194.279C98.3545 194.523 98.54 194.694 98.7842 194.792C99.0283 194.88 99.3359 194.924 99.707 194.924C99.9707 194.924 100.205 194.914 100.41 194.895C100.625 194.865 100.806 194.836 100.952 194.807L100.967 197.912C100.605 198.029 100.215 198.122 99.7949 198.19C99.375 198.259 98.9111 198.293 98.4033 198.293C97.4756 198.293 96.665 198.142 95.9717 197.839C95.2881 197.526 94.7607 197.028 94.3896 196.345C94.0186 195.661 93.833 194.763 93.833 193.649V178.239ZM107.397 185.607V198H103.179V182.15H107.148L107.397 185.607ZM112.173 182.048L112.1 185.959C111.895 185.93 111.646 185.905 111.353 185.886C111.069 185.856 110.811 185.842 110.576 185.842C109.98 185.842 109.463 185.92 109.023 186.076C108.594 186.223 108.232 186.442 107.939 186.735C107.656 187.028 107.441 187.385 107.295 187.805C107.158 188.225 107.08 188.703 107.061 189.24L106.211 188.977C106.211 187.951 106.313 187.009 106.519 186.149C106.724 185.28 107.021 184.523 107.412 183.879C107.812 183.234 108.301 182.736 108.877 182.385C109.453 182.033 110.112 181.857 110.854 181.857C111.089 181.857 111.328 181.877 111.572 181.916C111.816 181.945 112.017 181.989 112.173 182.048ZM123.54 194.206V182.15H127.759V198H123.789L123.54 194.206ZM124.009 190.954L125.254 190.925C125.254 191.979 125.132 192.961 124.888 193.869C124.644 194.768 124.277 195.549 123.789 196.213C123.301 196.867 122.686 197.38 121.943 197.751C121.201 198.112 120.327 198.293 119.321 198.293C118.55 198.293 117.837 198.186 117.183 197.971C116.538 197.746 115.981 197.399 115.513 196.931C115.054 196.452 114.692 195.842 114.429 195.1C114.175 194.348 114.048 193.444 114.048 192.39V182.15H118.267V192.419C118.267 192.888 118.32 193.283 118.428 193.605C118.545 193.928 118.706 194.191 118.911 194.396C119.116 194.602 119.355 194.748 119.629 194.836C119.912 194.924 120.225 194.968 120.566 194.968C121.436 194.968 122.119 194.792 122.617 194.44C123.125 194.089 123.481 193.61 123.687 193.005C123.901 192.39 124.009 191.706 124.009 190.954ZM138.276 198.293C137.046 198.293 135.942 198.098 134.966 197.707C133.989 197.307 133.159 196.755 132.476 196.052C131.802 195.349 131.284 194.533 130.923 193.605C130.562 192.668 130.381 191.672 130.381 190.617V190.031C130.381 188.83 130.552 187.731 130.894 186.735C131.235 185.739 131.724 184.875 132.358 184.143C133.003 183.41 133.784 182.849 134.702 182.458C135.62 182.058 136.655 181.857 137.808 181.857C138.931 181.857 139.927 182.043 140.796 182.414C141.665 182.785 142.393 183.312 142.979 183.996C143.574 184.68 144.023 185.5 144.326 186.457C144.629 187.404 144.78 188.459 144.78 189.621V191.379H132.183V188.566H140.635V188.244C140.635 187.658 140.527 187.136 140.312 186.677C140.107 186.208 139.795 185.837 139.375 185.563C138.955 185.29 138.418 185.153 137.764 185.153C137.207 185.153 136.729 185.275 136.328 185.52C135.928 185.764 135.601 186.105 135.347 186.545C135.103 186.984 134.917 187.502 134.79 188.098C134.673 188.684 134.614 189.328 134.614 190.031V190.617C134.614 191.252 134.702 191.838 134.878 192.375C135.063 192.912 135.322 193.376 135.654 193.767C135.996 194.157 136.406 194.46 136.885 194.675C137.373 194.89 137.925 194.997 138.54 194.997C139.302 194.997 140.01 194.851 140.664 194.558C141.328 194.255 141.899 193.801 142.378 193.195L144.429 195.422C144.097 195.9 143.643 196.359 143.066 196.799C142.5 197.238 141.816 197.6 141.016 197.883C140.215 198.156 139.302 198.293 138.276 198.293ZM158.55 192.419C158.55 192.038 158.491 191.696 158.374 191.394C158.267 191.081 158.062 190.798 157.759 190.544C157.456 190.28 157.031 190.021 156.484 189.768C155.938 189.514 155.229 189.25 154.36 188.977C153.394 188.664 152.476 188.312 151.606 187.922C150.747 187.531 149.985 187.077 149.321 186.56C148.667 186.032 148.149 185.422 147.769 184.729C147.397 184.035 147.212 183.229 147.212 182.312C147.212 181.423 147.407 180.617 147.798 179.895C148.188 179.162 148.735 178.537 149.438 178.02C150.142 177.492 150.972 177.087 151.929 176.804C152.896 176.521 153.955 176.379 155.107 176.379C156.68 176.379 158.052 176.662 159.224 177.229C160.396 177.795 161.304 178.571 161.948 179.558C162.603 180.544 162.93 181.672 162.93 182.941H158.564C158.564 182.316 158.433 181.77 158.169 181.301C157.915 180.822 157.524 180.446 156.997 180.173C156.479 179.899 155.825 179.763 155.034 179.763C154.272 179.763 153.638 179.88 153.13 180.114C152.622 180.339 152.241 180.646 151.987 181.037C151.733 181.418 151.606 181.848 151.606 182.326C151.606 182.688 151.694 183.015 151.87 183.308C152.056 183.601 152.329 183.874 152.69 184.128C153.052 184.382 153.496 184.621 154.023 184.846C154.551 185.07 155.161 185.29 155.854 185.505C157.017 185.856 158.037 186.252 158.916 186.691C159.805 187.131 160.547 187.624 161.143 188.171C161.738 188.718 162.188 189.338 162.49 190.031C162.793 190.725 162.944 191.511 162.944 192.39C162.944 193.317 162.764 194.147 162.402 194.88C162.041 195.612 161.519 196.232 160.835 196.74C160.151 197.248 159.336 197.634 158.389 197.897C157.441 198.161 156.382 198.293 155.21 198.293C154.155 198.293 153.115 198.156 152.09 197.883C151.064 197.6 150.132 197.175 149.292 196.608C148.462 196.042 147.798 195.319 147.3 194.44C146.802 193.562 146.553 192.521 146.553 191.32H150.962C150.962 191.984 151.064 192.546 151.27 193.005C151.475 193.464 151.763 193.835 152.134 194.118C152.515 194.401 152.964 194.606 153.481 194.733C154.009 194.86 154.585 194.924 155.21 194.924C155.972 194.924 156.597 194.816 157.085 194.602C157.583 194.387 157.949 194.089 158.184 193.708C158.428 193.327 158.55 192.897 158.55 192.419ZM173.433 182.15V185.139H164.204V182.15H173.433ZM166.489 178.239H170.708V193.225C170.708 193.684 170.767 194.035 170.884 194.279C171.011 194.523 171.196 194.694 171.44 194.792C171.685 194.88 171.992 194.924 172.363 194.924C172.627 194.924 172.861 194.914 173.066 194.895C173.281 194.865 173.462 194.836 173.608 194.807L173.623 197.912C173.262 198.029 172.871 198.122 172.451 198.19C172.031 198.259 171.567 198.293 171.06 198.293C170.132 198.293 169.321 198.142 168.628 197.839C167.944 197.526 167.417 197.028 167.046 196.345C166.675 195.661 166.489 194.763 166.489 193.649V178.239ZM174.78 190.236V189.929C174.78 188.767 174.946 187.697 175.278 186.721C175.61 185.734 176.094 184.88 176.729 184.157C177.363 183.435 178.145 182.873 179.072 182.473C180 182.062 181.064 181.857 182.266 181.857C183.467 181.857 184.536 182.062 185.474 182.473C186.411 182.873 187.197 183.435 187.832 184.157C188.477 184.88 188.965 185.734 189.297 186.721C189.629 187.697 189.795 188.767 189.795 189.929V190.236C189.795 191.389 189.629 192.458 189.297 193.444C188.965 194.421 188.477 195.275 187.832 196.008C187.197 196.73 186.416 197.292 185.488 197.692C184.561 198.093 183.496 198.293 182.295 198.293C181.094 198.293 180.024 198.093 179.087 197.692C178.159 197.292 177.373 196.73 176.729 196.008C176.094 195.275 175.61 194.421 175.278 193.444C174.946 192.458 174.78 191.389 174.78 190.236ZM178.999 189.929V190.236C178.999 190.9 179.058 191.521 179.175 192.097C179.292 192.673 179.478 193.181 179.731 193.62C179.995 194.05 180.337 194.387 180.757 194.631C181.177 194.875 181.689 194.997 182.295 194.997C182.881 194.997 183.384 194.875 183.804 194.631C184.224 194.387 184.561 194.05 184.814 193.62C185.068 193.181 185.254 192.673 185.371 192.097C185.498 191.521 185.562 190.9 185.562 190.236V189.929C185.562 189.284 185.498 188.679 185.371 188.112C185.254 187.536 185.063 187.028 184.8 186.589C184.546 186.14 184.209 185.788 183.789 185.534C183.369 185.28 182.861 185.153 182.266 185.153C181.67 185.153 181.162 185.28 180.742 185.534C180.332 185.788 179.995 186.14 179.731 186.589C179.478 187.028 179.292 187.536 179.175 188.112C179.058 188.679 178.999 189.284 178.999 189.929ZM198.936 194.997C199.453 194.997 199.912 194.899 200.312 194.704C200.713 194.499 201.025 194.216 201.25 193.854C201.484 193.483 201.606 193.049 201.616 192.551H205.586C205.576 193.664 205.278 194.655 204.692 195.524C204.106 196.384 203.32 197.062 202.334 197.561C201.348 198.049 200.244 198.293 199.023 198.293C197.793 198.293 196.719 198.088 195.801 197.678C194.893 197.268 194.136 196.701 193.53 195.979C192.925 195.246 192.471 194.396 192.168 193.43C191.865 192.453 191.714 191.408 191.714 190.295V189.87C191.714 188.747 191.865 187.702 192.168 186.735C192.471 185.759 192.925 184.909 193.53 184.187C194.136 183.454 194.893 182.883 195.801 182.473C196.709 182.062 197.773 181.857 198.994 181.857C200.293 181.857 201.431 182.106 202.407 182.604C203.394 183.103 204.165 183.815 204.722 184.743C205.288 185.661 205.576 186.75 205.586 188.01H201.616C201.606 187.482 201.494 187.004 201.279 186.574C201.074 186.145 200.771 185.803 200.371 185.549C199.98 185.285 199.497 185.153 198.921 185.153C198.306 185.153 197.803 185.285 197.412 185.549C197.021 185.803 196.719 186.154 196.504 186.604C196.289 187.043 196.138 187.546 196.05 188.112C195.972 188.669 195.933 189.255 195.933 189.87V190.295C195.933 190.91 195.972 191.501 196.05 192.067C196.128 192.634 196.274 193.137 196.489 193.576C196.714 194.016 197.021 194.362 197.412 194.616C197.803 194.87 198.311 194.997 198.936 194.997ZM212.251 175.485V198H208.032V175.485H212.251ZM222.241 182.15L215.356 190.002L211.665 193.737L210.127 190.69L213.057 186.97L217.173 182.15H222.241ZM217.861 198L213.174 190.676L216.089 188.127L222.725 198H217.861Z" fill="#8E1E03"/>
<path d="M165.912 132.125L131.466 97.6781L144.678 84.4656L179.125 118.913L165.912 132.125ZM79.0875 132.125L65.875 118.913L109.287 75.5L98.5917 64.8042L94.1875 69.2084L86.1656 61.1865V74.0844L81.7615 78.4886L62.7292 59.4563L67.1333 55.0521H80.0312L72.1667 47.1875L94.5021 24.8521C96.5993 22.7549 98.8538 21.2344 101.266 20.2906C103.677 19.3469 106.142 18.875 108.658 18.875C111.175 18.875 113.639 19.3469 116.051 20.2906C118.463 21.2344 120.717 22.7549 122.815 24.8521L108.344 39.3229L116.208 47.1875L111.804 51.5917L122.5 62.2875L136.656 48.1313C136.237 46.9778 135.897 45.7719 135.637 44.5136C135.377 43.2552 135.245 41.9969 135.241 40.7386C135.241 34.5517 137.365 29.3339 141.614 25.0849C145.863 20.8359 151.079 18.7135 157.261 18.7177C158.834 18.7177 160.33 18.875 161.747 19.1896C163.165 19.5042 164.606 19.9761 166.07 20.6052L150.498 36.1771L161.823 47.5021L177.395 31.9302C178.129 33.3983 178.628 34.8391 178.892 36.2526C179.156 37.6661 179.286 39.1614 179.282 40.7386C179.282 46.9254 177.16 52.1432 172.915 56.3922C168.67 60.6412 163.452 62.7636 157.261 62.7594C156.003 62.7594 154.745 62.6545 153.486 62.4448C152.228 62.2351 151.022 61.8681 149.869 61.3438L79.0875 132.125Z" fill="#8E1E03"/>
</svg>
