<svg width="75" height="75" viewBox="0 0 75 75" fill="none" xmlns="http://www.w3.org/2000/svg">
<path d="M59.0625 65.625L41.9531 48.5156L48.5156 41.9531L65.625 59.0625L59.0625 65.625ZM15.9375 65.625L9.375 59.0625L30.9375 37.5L25.625 32.1875L23.4375 34.375L19.4531 30.3906V36.7969L17.2656 38.9844L7.8125 29.5313L10 27.3438H16.4062L12.5 23.4375L23.5938 12.3438C24.6354 11.3021 25.7552 10.5469 26.9531 10.0781C28.151 9.60938 29.375 9.375 30.625 9.375C31.875 9.375 33.099 9.60938 34.2969 10.0781C35.4948 10.5469 36.6146 11.3021 37.6562 12.3438L30.4688 19.5313L34.375 23.4375L32.1875 25.625L37.5 30.9375L44.5312 23.9063C44.3229 23.3333 44.1542 22.7344 44.025 22.1094C43.8958 21.4844 43.8302 20.8594 43.8281 20.2344C43.8281 17.1615 44.8833 14.5698 46.9938 12.4594C49.1042 10.349 51.6948 9.29479 54.7656 9.29688C55.5469 9.29688 56.2896 9.375 56.9938 9.53125C57.6979 9.6875 58.4135 9.92188 59.1406 10.2344L51.4063 17.9688L57.0312 23.5938L64.7656 15.8594C65.1302 16.5885 65.3781 17.3042 65.5094 18.0063C65.6406 18.7083 65.7052 19.451 65.7031 20.2344C65.7031 23.3073 64.649 25.899 62.5406 28.0094C60.4323 30.1198 57.8406 31.174 54.7656 31.1719C54.1406 31.1719 53.5156 31.1198 52.8906 31.0156C52.2656 30.9115 51.6667 30.7292 51.0938 30.4688L15.9375 65.625Z" fill="#8E1E03"/>
</svg>
